# xmcd
#
# Track frame offsets: 
#        150
#        20370
#        37627
#        57855
#
# Disc length: 998 seconds
#
# Revision: 1
# Processed by: cddbd v1.5.2PL0 Copyright (c) Steve Scherf et al.
# Submitted via: ExactAudioCopy v1.0b3
#
DISCID=2103e404
DTITLE=BACKSTREET BOYS - Drowning
DYEAR=2002
DGENRE=Blues
TTITLE0=Drowning - Album version
TTITLE1=The One - Album version
TTITLE2=Drowning - TV track
TTITLE3=The One - Instrumental
EXTD=
EXTT0=
EXTT1=
EXTT2=
EXTT3=
PLAYORDER=
